<svg width="178" height="35" viewBox="0 0 178 35" fill="none" xmlns="http://www.w3.org/2000/svg">
<path d="M11 34H5V17H0V12H5V8C5 3.33659 6.31094 0 13 0C14.4147 0 17 0 17 0V5H15C12.623 5 11 5.96921 11 8V12H17L16 17H11V34ZM27 12C26.9023 12 26.0995 11.9975 26 12C19.7807 12 17 16.2534 17 23C17 31.499 20.5776 35 26 35C29.1024 35 31.7611 33.4757 33 31V34H39V12H33V15C31.9884 12.7721 30.0235 12.0264 27 12ZM28 17C30.6122 17 32 18.8515 32 22V25C32 27.1221 30.8911 30 28 30C23.5553 30 24 24.6239 24 23C24 17.5375 26.0422 17 28 17ZM42 23C42 20.2638 41.5183 12 53 12C57.609 12 60 13 60 13L58 18C58 18 56.5045 17 54 17C50.7923 17 48 18.676 48 22V24C48 27.1939 50.7173 30 54 30C56.2816 30 58 29 58 29L60 33C60 33 57.7022 35 53 35C42.0676 35 42 26.6732 42 23ZM97 12C103.219 12 106 16.2534 106 23C106 31.499 102.422 35 97 35C93.8976 35 91.2389 33.4758 90 31V34H84V1L91 0V15C91.9653 12.3737 94.888 12 97 12ZM95 17C92.3878 17 91 18.8515 91 22V25C90.9961 27.1221 91.8398 30 95 30C99.4447 30 99 24.6239 99 23C99 17.5375 96.958 17 95 17ZM71 12C63.9459 12 60 15.0562 60 22V24C60 33.0123 65.765 35 72 35C78.0604 35 81 33 81 33L79 29C79 29 76.5233 30 73 30C69.3474 30 67.4026 29.5661 67 26H81V22C81 14.4678 76.8453 12 71 12ZM71 16C73.4418 16 75.0869 17.4721 75 21H67C67.1428 17.2869 68.5537 16 71 16ZM119 11C111.756 11 108 15.5678 108 23C108 33.1974 115.504 35 120 35C126.582 35 130 31.1463 130 23C130 14.5211 125.049 11 119 11ZM119 17C122.185 17 124 19.2431 124 22V24C124 27.3397 121.693 30 119 30C116.481 30 115 27.4645 115 24V22C115 18.3051 116.805 17 119 17ZM144 11C136.756 11 133 15.5678 133 23C133 33.1974 139.504 35 144 35C150.582 35 155 31.1463 155 23C155 14.5211 150.049 11 144 11ZM144 17C147.185 17 148 19.2431 148 22V24C148 27.3397 146.693 30 144 30C141.481 30 139 27.4645 139 24V22C139 18.3051 141.805 17 144 17ZM157 34V1L164 0V23L171 12H178L171 23L178 34H171L164 23V34H157Z" fill="#6F6C90"/>
</svg>
