<svg width="107" height="37" viewBox="0 0 107 37" fill="none" xmlns="http://www.w3.org/2000/svg">
<path fill-rule="evenodd" clip-rule="evenodd" d="M107 12V30L97 37H91V34L87 37H82V34L78 37H69L66 34L65 37H57L53 34V37H43V34L40 37H26L23 35V37H14L6 31L0 25V0H11L17 6H42V0H63V6H68V9L71 6H77L83 0H95V6H101L107 12ZM14 8H9V3H3V24L7 29H14V22H9V15H14V8ZM42 8H36V22H33V8H27V22H24V8H17V29H38L42 24V8ZM51 8H45V29H51V8ZM51 3H45V6H51V3ZM66 8H60V3H54V24L58 29H66V22H60V15H66V8ZM83 8H72L68 13V24L73 29H83V22H75V15H83V8ZM104 13L100 8H92V3H85V29H92V15H97V29H104V13Z" fill="#6F6C90"/>
</svg>
