<svg width="152" height="39" viewBox="0 0 152 39" fill="none" xmlns="http://www.w3.org/2000/svg">
<path d="M49 15.0001C49 12.1999 46.5959 10.0001 42 10.0001C36.8459 10.0001 30.8665 13.3048 30 21.0001C29.1146 28.7707 34.2232 32.0001 39 32.0001C43.7768 32.0001 46.4419 30.5326 49 28.0001C46.8002 25.1824 43.5443 26.7131 43 27.0001C42.0989 27.5102 41.031 27.0327 40 27.0001C38.1568 27.0001 36 26.5109 36 23.0001C47.8102 21.81 49 17.7828 49 15.0001ZM43 16.0001C42.9242 16.8629 42.9809 18.1723 37 19.0001C38.2575 14.4323 40.8924 14.0001 42 14.0001C42.2245 13.9897 41.7916 13.9147 42 14.0001C42.2084 14.0855 42.8454 13.8344 43 14.0001C43.1546 14.1658 42.9272 14.7841 43 15.0001C43.0728 15.2161 43.0222 15.7729 43 16.0001ZM23 16.0001L20 25.0001L19 10.0001C14.6762 10.0001 12.2127 12.6819 11 16.0001L7 25.0001V17.0001C6.74505 12.9328 2.95428 10.0001 0 10.0001L4 32.0001C8.53047 31.9826 10.7201 29.3184 12 26.0001L15 18.0001C15.0258 18.3064 17 32.0001 17 32.0001C21.5511 32.0001 23.6891 29.2046 25 26.0001L31 10.0001C26.5126 10.0001 24.2213 12.6626 23 16.0001ZM66 9.00011C63.1973 9.00011 60.8087 10.7179 59 13.0001L61 0.000107646C57.2757 0.000107646 53.5822 3.08923 53 8.00011L51 32.0001C53.1447 32.0001 54.7769 31.612 56 30.0001C57.0921 31.4387 58.5728 32.0001 61 32.0001C67.2806 32.0001 72 24.9849 72 18.0001C71.9621 11.6296 69.0284 9.00011 66 9.00011ZM65 21.0001C64.3454 24.8942 62.0482 27.0001 60 27.0001C57.9518 27.0001 57 26.0001 57 26.0001C57.3962 22.5873 58.2489 20.8045 59 19.0001C59.7511 17.1957 61.1379 15.0001 63 15.0001C64.826 15.0001 65.6598 17.0868 65 21.0001ZM88 10.0001H83C83.3015 7.08438 83.7675 5.25038 86 5.00011C87.5245 4.8461 88.8312 3.88218 89 3.00011V0.000107646C80.2147 -0.0576468 77.708 4.08815 77 10.0001C75.5702 10.0001 74.2653 11.9087 74 14.0001V15.0001H77L74 35.0001L73 39.0001C73.0947 39.0001 73.907 39.0001 74 39.0001C78.1171 38.8461 80.4178 35.8165 81 31.0001L83 14.0001H84C85.354 14.0001 86.7244 13.3015 87 11.0001L88 10.0001ZM110 10.0001C104.941 10.0001 100.464 13.0321 99 19.0001C97.5358 24.9681 99.5549 32.0001 107 32.0001C114.445 32.0001 119 25.1186 119 19.0001C119.007 12.9184 114.572 10.0001 110 10.0001ZM112 21.0001C111.738 23.7058 111.197 28.0001 108 28.0001C104.803 28.0001 104.69 22.284 105 20.0001C105.339 17.5639 107.123 15.0001 110 15.0001C112.587 15.0001 112.298 17.9496 112 21.0001ZM144 16.0001L141 25.0001C140.926 24.3088 139 10.0001 139 10.0001C134.676 10.0001 132.213 12.6819 131 16.0001L128 25.0001C127.983 24.3666 128 17.0001 128 17.0001C127.728 12.9328 123.966 10.0001 121 10.0001L124 32.0001C128.53 31.9826 131.72 29.3184 133 26.0001L135 18.0001C135.017 18.3064 137 32.0001 137 32.0001C141.551 32.0001 144.679 29.2046 146 26.0001L152 10.0001C147.525 10.0001 145.204 12.6626 144 16.0001ZM92 0.000107646L88 30.0001L87 34.0001C87.093 34.0001 87.907 34.0001 88 34.0001C91.9655 33.9424 94.4712 30.4717 95 26.0001L97 9.00011C97.6443 3.68495 94.8406 0.000107646 92 0.000107646Z" fill="#6F6C90"/>
</svg>
