<svg width="82" height="82" viewBox="0 0 82 82" fill="none" xmlns="http://www.w3.org/2000/svg">
<path fill-rule="evenodd" clip-rule="evenodd" d="M80 41C80 62.5391 62.5391 80 41 80C19.4609 80 2 62.5391 2 41C2 19.4609 19.4609 2 41 2C62.5391 2 80 19.4609 80 41ZM82 41C82 63.6437 63.6437 82 41 82C18.3563 82 0 63.6437 0 41C0 18.3563 18.3563 0 41 0C63.6437 0 82 18.3563 82 41ZM41.7071 58.7071L48.0711 52.3431C48.4616 51.9526 48.4616 51.3195 48.0711 50.9289C47.6805 50.5384 47.0474 50.5384 46.6569 50.9289L42 55.5858V25C42 24.4477 41.5523 24 41 24C40.4477 24 40 24.4477 40 25V55.5858L35.3431 50.9289C34.9526 50.5384 34.3195 50.5384 33.9289 50.9289C33.5384 51.3195 33.5384 51.9526 33.9289 52.3431L40.2929 58.7071C40.6834 59.0976 41.3166 59.0976 41.7071 58.7071Z" fill="#ffffff"/>
</svg>
