<svg width="119" height="119" viewBox="0 0 119 119" fill="none" xmlns="http://www.w3.org/2000/svg">
<mask id="path-1-inside-1_2_243" fill="white">
<path d="M60 119C92.8609 119 119 92.8609 119 60C119 27.1391 92.8609 0 60 0C27.1391 0 0 27.1391 0 60C0 92.8609 27.1391 119 60 119Z"/>
</mask>
<path d="M60 119C92.8609 119 119 92.8609 119 60C119 27.1391 92.8609 0 60 0C27.1391 0 0 27.1391 0 60C0 92.8609 27.1391 119 60 119Z" fill="white"/>
<path d="M58.2929 84.7071C58.6834 85.0976 59.3166 85.0976 59.7071 84.7071L66.0711 78.3431C66.4616 77.9526 66.4616 77.3195 66.0711 76.9289C65.6805 76.5384 65.0474 76.5384 64.6569 76.9289L59 82.5858L53.3431 76.9289C52.9526 76.5384 52.3195 76.5384 51.9289 76.9289C51.5384 77.3195 51.5384 77.9526 51.9289 78.3431L58.2929 84.7071ZM58 25V84H60V25H58ZM117 60C117 91.7564 91.7564 117 60 117V121C93.9655 121 121 93.9655 121 60H117ZM60 2C91.7128 2 117 28.1996 117 60H121C121 26.0785 94.009 -2 60 -2V2ZM2 60C2 28.2436 28.2436 2 60 2V-2C26.0345 -2 -2 26.0345 -2 60H2ZM60 117C28.1996 117 2 91.7128 2 60H-2C-2 94.009 26.0785 121 60 121V117Z" fill="black" mask="url(#path-1-inside-1_2_243)"/>
</svg>
