<svg width="85" height="85" viewBox="0 0 85 85" fill="none" xmlns="http://www.w3.org/2000/svg">
<path d="M55 10H30C21.1294 10 19.14 14.6047 18 20L14 39H71L67 20C65.86 14.6047 63.8706 10 55 10Z" stroke="#025CE4" stroke-width="1.5" stroke-linecap="round" stroke-linejoin="round"/>
<path d="M78 70C78.3905 74.1482 75.2605 78 71 78H64C60.1655 78 59.6745 76.0209 59 74L58 72C57.0058 69.0927 57.1126 67 52 67H33C27.8873 67 27.8876 69.3409 27 72L26 74C25.3254 76.0209 24.8344 78 21 78H14C9.73943 78 6.60941 74.1482 6.99995 70L8.99995 49C9.49702 43.6818 10.6978 39 20 39H65C74.3021 39 75.5029 43.6818 76 49L78 70Z" stroke="#025CE4" stroke-width="1.5" stroke-linecap="round" stroke-linejoin="round"/>
<path d="M15 28H11" stroke="#025CE4" stroke-width="1.5" stroke-linecap="round" stroke-linejoin="round"/>
<path d="M75 28H71" stroke="#025CE4" stroke-width="1.5" stroke-linecap="round" stroke-linejoin="round"/>
<path d="M43 11V18" stroke="#025CE4" stroke-width="1.5" stroke-linecap="round" stroke-linejoin="round"/>
<path d="M37 18H48" stroke="#025CE4" stroke-width="1.5" stroke-linecap="round" stroke-linejoin="round"/>
<path d="M21 53H32" stroke="#025CE4" stroke-width="1.5" stroke-linecap="round" stroke-linejoin="round"/>
<path d="M53 53H64" stroke="#025CE4" stroke-width="1.5" stroke-linecap="round" stroke-linejoin="round"/>
</svg>
