<svg width="85" height="85" viewBox="0 0 85 85" fill="none" xmlns="http://www.w3.org/2000/svg">
<path d="M42.5 77.9166C61.9792 77.9166 77.9167 61.9791 77.9167 42.5C77.9167 23.0208 61.9792 7.08331 42.5 7.08331C23.0209 7.08331 7.08337 23.0208 7.08337 42.5C7.08337 61.9791 23.0209 77.9166 42.5 77.9166Z" stroke="#025CE4" stroke-width="1.5" stroke-linecap="round" stroke-linejoin="round"/>
<path d="M44.4062 34.6406V60H41.6172V34.6406H44.4062ZM41.125 27.3047C41.125 26.7734 41.2891 26.3281 41.6172 25.9688C41.9609 25.5938 42.4297 25.4062 43.0234 25.4062C43.6172 25.4062 44.0859 25.5938 44.4297 25.9688C44.7891 26.3281 44.9688 26.7734 44.9688 27.3047C44.9688 27.8203 44.7891 28.2656 44.4297 28.6406C44.0859 29 43.6172 29.1797 43.0234 29.1797C42.4297 29.1797 41.9609 29 41.6172 28.6406C41.2891 28.2656 41.125 27.8203 41.125 27.3047Z" fill="#025CE4"/>
</svg>
