<svg width="85" height="85" viewBox="0 0 85 85" fill="none" xmlns="http://www.w3.org/2000/svg">
<path d="M28.3334 77.9165H56.6667C70.9042 77.9165 73.4542 72.2144 74.198 65.2727L76.8542 36.9394C77.8105 28.2977 75.3313 21.2498 60.2084 21.2498H24.7917C9.66879 21.2498 7.18962 28.2977 8.14587 36.9394L10.8021 65.2727C11.5459 72.2144 14.0959 77.9165 28.3334 77.9165Z" stroke="#0285E4" stroke-width="1.5" stroke-miterlimit="10" stroke-linecap="round" stroke-linejoin="round"/>
<path d="M28.3334 21.2498V18.4164C28.3334 12.1477 28.3334 7.08312 39.6667 7.08312H45.3334C56.6667 7.08312 56.6667 12.1477 56.6667 18.4164V21.2498" stroke="#0285E4" stroke-width="1.5" stroke-miterlimit="10" stroke-linecap="round" stroke-linejoin="round"/>
<path d="M49.5833 46.0414V49.5831C49.5833 49.6185 49.5833 49.6185 49.5833 49.654C49.5833 53.5144 49.5479 56.6665 42.5 56.6665C35.4875 56.6665 35.4166 53.5498 35.4166 49.6894V46.0414C35.4166 42.4998 35.4166 42.4998 38.9583 42.4998H46.0416C49.5833 42.4998 49.5833 42.4998 49.5833 46.0414Z" stroke="#0285E4" stroke-width="1.5" stroke-miterlimit="10" stroke-linecap="round" stroke-linejoin="round"/>
<path d="M76.6771 38.9581C68.4959 44.9081 59.1459 48.4498 49.5834 49.654" stroke="#0285E4" stroke-width="1.5" stroke-miterlimit="10" stroke-linecap="round" stroke-linejoin="round"/>
<path d="M9.27917 39.9144C17.2479 45.3685 26.2438 48.6623 35.4167 49.6894" stroke="#0285E4" stroke-width="1.5" stroke-miterlimit="10" stroke-linecap="round" stroke-linejoin="round"/>
</svg>
