<svg width="55" height="55" viewBox="0 0 55 55" fill="none" xmlns="http://www.w3.org/2000/svg">
<path d="M14.677 41.1003H17.0926C17.6187 41.1003 18.0128 41.2255 18.2748 41.4757C18.5368 41.7259 18.6677 42.082 18.6677 42.5439C18.6677 43.0187 18.525 43.3898 18.2395 43.6571C17.954 43.9244 17.5182 44.0581 16.9322 44.0581H16.1366V45.8032H14.677V41.1003ZM16.1366 43.1053H16.4927C16.7729 43.1053 16.9696 43.0567 17.083 42.9594C17.1964 42.8621 17.253 42.7375 17.253 42.5856C17.253 42.4381 17.2038 42.313 17.1054 42.2103C17.0071 42.1076 16.8221 42.0563 16.5505 42.0563H16.1366V43.1053Z" fill="#005A9E"/>
<path d="M19.4471 45.803V41.1001H21.8692C22.3183 41.1001 22.6615 41.1386 22.8989 41.2156C23.1363 41.2926 23.3277 41.4353 23.4732 41.6439C23.6186 41.8524 23.6913 42.1063 23.6913 42.4057C23.6913 42.6667 23.6357 42.8918 23.5245 43.081C23.4133 43.2703 23.2604 43.4237 23.0657 43.5414C22.9417 43.6162 22.7717 43.6782 22.5557 43.7274C22.7289 43.7852 22.8551 43.8429 22.9342 43.9007C22.9877 43.9392 23.0652 44.0215 23.1668 44.1477C23.2684 44.2739 23.3363 44.3712 23.3705 44.4396L24.0731 45.803H22.4306L21.6542 44.3658C21.5559 44.1798 21.4682 44.0589 21.3912 44.0033C21.2864 43.9306 21.1677 43.8942 21.0351 43.8942H20.9068V45.803H19.4471ZM20.9068 43.0056H21.5195C21.5858 43.0056 21.7141 42.9843 21.9045 42.9415C22.0007 42.9222 22.0793 42.8731 22.1402 42.7939C22.2012 42.7148 22.2317 42.6239 22.2317 42.5212C22.2317 42.3694 22.1836 42.2528 22.0873 42.1716C21.9911 42.0903 21.8103 42.0497 21.5452 42.0497H20.9068V43.0056Z" fill="#005A9E"/>
<path d="M24.4193 41.1003H28.5319V42.0403L25.895 44.7927H28.6282V45.8032H24.1659V44.828L26.774 42.1044H24.4193V41.1003Z" fill="#005A9E"/>
<path d="M29.2793 41.1003H33.1738V42.1044H30.7357V42.8519H32.9973V43.8111H30.7357V44.7382H33.2444V45.8032H29.2793V41.1003Z" fill="#005A9E"/>
<path d="M34.0109 41.1003H35.9228L36.6607 43.9619L37.3953 41.1003H39.3008V45.8032H38.1139V42.2167L37.1932 45.8032H36.1185L35.201 42.2167V45.8032H34.0109V41.1003Z" fill="#005A9E"/>
<path d="M39.7529 41.1003H41.3666L42.3161 42.6883L43.2657 41.1003H44.8697L43.0411 43.8336V45.8032H41.5847V43.8336L39.7529 41.1003Z" fill="#005A9E"/>
<path d="M45.0845 44.2472L46.4671 44.1606C46.4971 44.3852 46.558 44.5563 46.65 44.6739C46.7997 44.8642 47.0136 44.9594 47.2916 44.9594C47.499 44.9594 47.6589 44.9108 47.7712 44.8134C47.8835 44.7161 47.9396 44.6033 47.9396 44.475C47.9396 44.3531 47.8861 44.244 47.7792 44.1478C47.6723 44.0516 47.4242 43.9607 47.0349 43.8751C46.3976 43.7318 45.9432 43.5415 45.6715 43.3041C45.3978 43.0667 45.2609 42.7641 45.2609 42.3962C45.2609 42.1546 45.331 41.9263 45.471 41.7113C45.6111 41.4964 45.8218 41.3274 46.103 41.2045C46.3843 41.0815 46.7697 41.02 47.2595 41.02C47.8605 41.02 48.3187 41.1317 48.6341 41.3552C48.9496 41.5787 49.1372 41.9343 49.1971 42.4219L47.8273 42.5021C47.791 42.2904 47.7145 42.1364 47.5979 42.0401C47.4814 41.9439 47.3204 41.8958 47.1151 41.8958C46.9462 41.8958 46.8189 41.9316 46.7334 42.0033C46.6478 42.0749 46.6051 42.1621 46.6051 42.2647C46.6051 42.3396 46.6403 42.4069 46.7109 42.4668C46.7794 42.5288 46.9419 42.5866 47.1985 42.64C47.8337 42.7769 48.2887 42.9154 48.5636 43.0555C48.8384 43.1955 49.0383 43.3693 49.1634 43.5768C49.2886 43.7842 49.3511 44.0163 49.3511 44.2729C49.3511 44.5744 49.2677 44.8525 49.1009 45.107C48.9341 45.3615 48.701 45.5545 48.4015 45.686C48.1021 45.8175 47.7247 45.8833 47.2691 45.8833C46.4693 45.8833 45.9154 45.7293 45.6074 45.4214C45.2994 45.1134 45.1251 44.722 45.0845 44.2472ZM47.205 39.8298H48.3278L47.2916 40.789H46.666L47.205 39.8298Z" fill="#005A9E"/>
<path d="M50.0824 41.1003H51.5356V44.6452H53.8037V45.8032H50.0824V41.1003Z" fill="#005A9E"/>
<path d="M8.28734 40.6458V45.8108H6.8601V42.4263C6.62916 42.6019 6.40571 42.7439 6.18979 42.8524C5.97385 42.961 5.70308 43.0649 5.37744 43.1642V42.0072C5.85779 41.8524 6.23078 41.6665 6.49637 41.4494C6.76195 41.2324 6.96981 40.9645 7.11992 40.6458H8.28734Z" fill="#005A9E"/>
<path d="M33.5219 6.16235C33.0865 7.85611 32.8018 9.37455 32.6261 10.3123L32.6175 10.357C32.4223 11.384 32.3051 12.1736 32.1152 13.4716C31.2612 12.3637 30.3654 11.2609 29.3912 10.2926C29.8071 9.41629 30.332 8.62366 31.0017 7.96528C31.7524 7.2281 32.6092 6.63669 33.5219 6.16235Z" fill="#FBDE38"/>
<path d="M33.7813 34.3945C31.677 34.5062 29.3187 34.353 27.9317 34.0875C24.5769 33.4431 21.7498 32.0836 18.8026 29.7617C14.767 26.5829 11.0383 25.313 9.69306 24.9307C9.41694 24.8498 9.28295 24.5345 9.42251 24.2832C11.0328 21.4199 13.6619 21.4644 16.3886 22.1481C20.265 28.1095 25.3192 34.403 33.1616 34.403C33.371 34.403 33.5775 34.4 33.7813 34.3945Z" fill="#FBDE38"/>
<path d="M37.6521 4.76685C37.3452 6.05327 37.133 7.27846 36.9879 8.11301L36.9348 8.42275C36.7005 9.75689 36.5915 10.8509 36.4911 11.9059C36.3794 13.0474 36.2651 14.2251 35.9887 15.7461C35.8464 16.5304 35.6985 17.253 35.5812 17.8251C34.6017 16.787 33.6248 15.4584 32.5923 14.0939L32.6173 13.9096C32.8461 12.3522 32.9606 11.5679 33.1672 10.4602L33.1756 10.4183C33.3654 9.40821 33.6835 7.71938 34.1775 5.87474C34.1803 5.86362 34.1831 5.85528 34.1803 5.84392C35.2965 5.34155 36.48 4.99823 37.6521 4.76685Z" fill="#FBDE38"/>
<path d="M41.6935 4.35352C41.2496 5.91069 40.926 7.56012 40.7027 9.38251C40.5715 10.4377 40.527 11.2665 40.4767 12.1431C40.4208 13.1531 40.3622 14.1968 40.1698 15.6986L40.1473 15.8884C39.966 17.3061 39.7594 18.9107 39.4133 19.829C39.4105 19.8373 39.4078 19.8457 39.4078 19.8543C38.2217 19.9572 37.1331 19.3294 36.056 18.2994C36.1845 17.6856 36.363 16.8092 36.5387 15.8463C36.8206 14.303 36.9379 13.1114 37.0494 11.9586C37.1556 10.8678 37.2559 9.83479 37.4876 8.52034L37.5406 8.20762C37.6941 7.32854 37.9231 6.01151 38.2579 4.66067C39.4608 4.45968 40.6357 4.3732 41.6935 4.35352Z" fill="#FBDE38"/>
<path d="M45.7402 5.17956C44.5206 7.36775 44.5289 11.9616 43.9623 16.8818C42.6228 18.1963 41.3334 19.349 40.0385 19.7312C40.3482 18.7379 40.535 17.2695 40.7026 15.9608L40.7277 15.7684C40.9231 14.2472 40.9818 13.1924 41.0376 12.1735C41.0849 11.3056 41.1324 10.4881 41.2581 9.44957C41.4841 7.59099 41.8189 5.9193 42.2795 4.34521C43.6134 4.34521 44.7188 4.43726 45.3996 4.51517C45.7207 4.55155 45.8964 4.90046 45.7402 5.17956Z" fill="#FBDE38"/>
<path d="M54.7882 12.7989C50.4707 9.88528 47.0826 13.8203 43.9622 16.882C42.6227 18.1967 41.3333 19.3493 40.0383 19.7316C39.8346 19.79 39.6336 19.8318 39.43 19.8514C39.4215 19.8514 39.4159 19.8514 39.4075 19.8544C38.2215 19.9574 37.1331 19.3296 36.0558 18.2996C35.8995 18.1519 35.7403 17.9929 35.5813 17.8251C34.6018 16.7872 33.6249 15.4586 32.5923 14.094C32.4333 13.8873 32.2743 13.681 32.115 13.4718C31.261 12.3637 30.3652 11.261 29.3911 10.2926C28.1381 9.04814 26.7538 8.03207 25.1769 7.53828C24.0493 7.18659 22.8884 7.03312 21.7357 7.02734C23.0643 8.53166 24.1583 9.94371 24.7666 10.734C25.5398 11.7355 26.0841 12.4975 27.0691 13.8847C27.3287 14.2501 27.619 14.6604 27.954 15.1296C28.2106 15.4922 28.4953 15.8914 28.8134 16.3323C29.7066 17.5826 30.435 18.5901 30.887 19.2123C30.9763 19.3382 30.9485 19.5139 30.8228 19.6032C30.7727 19.6393 30.7169 19.656 30.6582 19.656C30.5717 19.656 30.4881 19.6171 30.4322 19.5417C29.9801 18.9195 29.2515 17.9092 28.3557 16.6588C28.1631 16.3882 27.9818 16.1339 27.8116 15.897C27.3371 15.2353 26.9465 14.6855 26.6115 14.2114C25.5984 12.785 25.0905 12.0677 24.3229 11.0771C23.6671 10.2314 22.4558 8.66009 20.9962 7.04426C19.6064 7.11125 18.2333 7.37923 16.9326 7.75575C18.0685 9.0732 19.0398 10.3624 19.5255 11.0045C20.4296 12.2047 21.0855 13.2287 21.7218 14.2197C22.4057 15.2914 23.1144 16.3991 24.1583 17.7613C25.138 19.0449 26.0254 20.1306 26.3632 20.5379C26.4608 20.6552 26.4439 20.8339 26.324 20.9315C26.2709 20.9763 26.2095 20.996 26.1453 20.996C26.0644 20.996 25.9862 20.9623 25.9304 20.8951C25.59 20.485 24.6968 19.391 23.7118 18.1014C22.6568 16.7202 21.9395 15.6037 21.2475 14.5209C20.5914 13.4937 19.9692 12.5255 19.076 11.3419C18.5347 10.6248 17.5355 9.29901 16.3437 7.93425C15.0237 8.35293 13.7929 8.87776 12.7156 9.40261C14.5466 11.3673 15.8135 13.1561 16.2853 13.8539C16.9467 14.8306 17.4099 15.6234 17.8983 16.4633C18.4649 17.4347 19.051 18.4364 19.9998 19.8264C20.7227 20.8814 21.4902 21.9168 22.2828 22.9046C22.3777 23.0247 22.3582 23.2006 22.2381 23.2984C22.188 23.3402 22.1236 23.3597 22.0624 23.3597C21.9812 23.3597 21.9005 23.3233 21.8447 23.2535C21.0437 22.2573 20.2678 21.2109 19.5366 20.1419C18.5764 18.738 17.9848 17.7249 17.4154 16.748C16.93 15.9137 16.4721 15.1296 15.8219 14.1666C15.3503 13.4688 14.0581 11.6464 12.191 9.66459C10.8346 10.357 9.76844 11.0268 9.14622 11.4427C8.88101 11.621 8.88101 12.0146 9.14879 12.188C11.3509 13.6112 13.5558 17.7919 16.3885 22.1484C20.265 28.1095 25.3193 34.4033 33.1617 34.4033C33.371 34.4033 33.5774 34.4003 33.7811 34.3948C33.7953 34.392 33.8064 34.392 33.8203 34.392H33.8398C41.6544 34.124 45.3355 29.2232 48.238 22.9102C50.6464 17.6663 53.7415 14.5155 54.8411 13.4992C55.0534 13.304 55.0254 12.9581 54.7882 12.7989Z" fill="#005A9E"/>
<path d="M7.36369 47.898C9.91874 47.898 11.9901 45.8267 11.9901 43.2716C11.9901 40.7166 9.91874 38.6453 7.36369 38.6453C4.80862 38.6453 2.7373 40.7166 2.7373 43.2716C2.7373 45.8267 4.80862 47.898 7.36369 47.898V47.898Z" stroke="#005A9E"/>
</svg>
