<svg width="59" height="77" viewBox="0 0 59 77" fill="none" xmlns="http://www.w3.org/2000/svg">
<path d="M58.9252 47.1833L58.4585 8.21666L47.9585 8.74166V0.283325L23.196 1.50833L22.9044 32.8917C22.9115 34.7418 22.3804 36.5541 21.3758 38.1077C20.3711 39.6613 18.9362 40.8892 17.246 41.6417L7.41685 45.8417C4.66264 47.0563 2.50217 49.3131 1.40878 52.1177C0.315382 54.9222 0.37822 58.0458 1.58352 60.8042C2.24009 62.2754 3.1811 63.6023 4.3524 64.7086C5.5237 65.8148 6.90218 66.6785 8.40852 67.25C9.55959 67.6766 10.7697 67.9226 11.996 67.9792C11.996 68.2417 12.1419 68.5042 12.2585 68.7667C13.571 71.7269 16.0047 74.0452 19.0252 75.2125C20.4237 75.7415 21.905 76.0181 23.4002 76.0292C25.1099 76.0169 26.7984 75.6494 28.3585 74.95L48.7752 65.9083L51.6918 64.5667C53.8718 63.5991 55.7209 62.0149 57.0114 60.0092C58.3019 58.0035 58.9773 55.664 58.9544 53.2792V53.2792L58.9252 47.1833ZM45.7418 45.3458C45.749 47.196 45.2179 49.0082 44.2133 50.5619C43.2086 52.1155 41.7737 53.3433 40.0835 54.0958L39.3543 54.4167C38.8759 53.1998 38.6635 51.8945 38.7316 50.5887C38.7997 49.283 39.1465 48.0069 39.7489 46.8463C40.3513 45.6858 41.1952 44.6677 42.2239 43.8605C43.2526 43.0533 44.4422 42.4757 45.7127 42.1667L45.7418 45.3458ZM4.06269 59.7542C3.13775 57.6411 3.08462 55.2482 3.91486 53.0961C4.7451 50.9441 6.39154 49.2069 8.49602 48.2625L18.2085 43.9167C20.3466 42.9689 22.166 41.4249 23.4489 39.4695C24.7318 37.5141 25.4238 35.2303 25.4418 32.8917L25.7043 4.01666L45.246 3.02499L45.6835 39.5417C43.96 39.8442 42.3267 40.5305 40.9044 41.5499C39.4821 42.5692 38.3073 43.8954 37.467 45.4303C36.6268 46.9652 36.1425 48.6695 36.0502 50.4169C35.9578 52.1643 36.2597 53.9101 36.9335 55.525L16.5169 64.5667C14.2023 65.5815 11.5808 65.6423 9.22164 64.7358C6.86252 63.8293 4.95627 62.0287 3.91686 59.725L4.06269 59.7542ZM47.4627 54.8833C46.3741 57.7084 46.4264 60.8461 47.6085 63.6333L27.1919 72.6458C24.9115 73.6685 22.3201 73.7522 19.9785 72.8789C17.6368 72.0055 15.7331 70.2453 14.6794 67.9792C15.6807 67.8095 16.6593 67.5257 17.596 67.1333L38.0127 58.0625L40.9294 56.7208C42.5578 55.9875 44.0099 54.9133 45.1877 53.5708C47.1188 51.3042 48.156 48.4106 48.1044 45.4333V45.4333V39.3667L47.7835 11.5125L55.6293 11.1333L56.4169 47.5333C54.4187 47.8863 52.5452 48.7479 50.9769 50.0353C49.4086 51.3227 48.1983 52.9923 47.4627 54.8833V54.8833ZM50.5835 62.1458L49.8544 62.4667C49.3777 61.2359 49.1726 59.9167 49.2533 58.5993C49.3339 57.2819 49.6983 55.9976 50.3216 54.8342C50.9449 53.6708 51.8122 52.6558 52.8642 51.8588C53.9163 51.0618 55.1282 50.5017 56.4169 50.2167V53.3083C56.4151 55.1904 55.8615 57.0306 54.8247 58.6014C53.7879 60.1721 52.3134 61.4044 50.5835 62.1458V62.1458Z" fill="#F3CD03"/>
</svg>
