<svg width="85" height="85" viewBox="0 0 85 85" fill="none" xmlns="http://www.w3.org/2000/svg">
<path d="M17.7637 4.12486C17.7637 3.6071 18.1834 3.18736 18.7012 3.18736H26.7871C27.3049 3.18736 27.7246 3.6071 27.7246 4.12486V30.438C27.7246 30.5306 27.6972 30.621 27.6459 30.698L22.8229 37.9326C22.7715 38.0096 22.7441 38.1 22.7441 38.1926V80.875C22.7441 81.3928 22.3244 81.8125 21.8066 81.8125H13.7207C13.2029 81.8125 12.7832 81.3928 12.7832 80.875V38.1926C12.7832 38.1 12.8106 38.0096 12.8619 37.9326L17.6849 30.698C17.7363 30.621 17.7637 30.5306 17.7637 30.438V4.12486Z" stroke="#0285E4" stroke-width="1.5" stroke-linecap="round" stroke-linejoin="round"/>
<path d="M5.3125 5.6776H17.7637" stroke="#0285E4" stroke-width="1.5" stroke-linecap="round"/>
<path d="M5.3125 15.6385H17.7637" stroke="#0285E4" stroke-width="1.5" stroke-linecap="round"/>
<path d="M5.3125 25.5995H17.7637" stroke="#0285E4" stroke-width="1.5" stroke-linecap="round"/>
<path d="M53.6228 48.0117H66.074" stroke="#0285E4" stroke-width="1.5" stroke-linecap="round"/>
<path d="M42.666 3.1875H77.5293L72.5488 62.9531H47.6465L42.666 3.1875Z" stroke="#0285E4" stroke-width="1.5" stroke-linecap="round" stroke-linejoin="round"/>
<path d="M52.627 72.9141H67.5684L72.5488 62.9531H47.6465L52.627 72.9141Z" stroke="#0285E4" stroke-width="1.5" stroke-linecap="round" stroke-linejoin="round"/>
<path d="M52.627 72.9141H67.5684V81.8126H52.627V72.9141Z" stroke="#0285E4" stroke-width="1.5" stroke-linecap="round" stroke-linejoin="round"/>
<path d="M60.6866 23.1095L60.1393 23.6223C60.3985 23.8989 60.8233 23.9386 61.1293 23.7149L60.6866 23.1095ZM55.7053 38.0508L55.0345 38.3862C55.1423 38.6018 55.3472 38.7524 55.5851 38.7911C55.8231 38.8297 56.0651 38.7516 56.2356 38.5812L55.7053 38.0508ZM60.6866 33.0704L61.217 32.5401C60.9241 32.2472 60.4492 32.2472 60.1563 32.54L60.6866 33.0704ZM65.6663 38.0508L65.1359 38.5811C65.3202 38.7654 65.5869 38.8408 65.8404 38.7803C66.0939 38.7198 66.2978 38.532 66.3789 38.2844L65.6663 38.0508ZM67.5684 20.6191L67.9626 19.9811L67.5684 20.6191ZM60.6866 23.1095C61.2339 22.5966 61.2337 22.5965 61.2336 22.5963C61.2335 22.5962 61.2333 22.596 61.2331 22.5958C61.2328 22.5955 61.2323 22.595 61.2318 22.5944C61.2308 22.5933 61.2293 22.5918 61.2275 22.5899C61.224 22.5861 61.2189 22.5808 61.2125 22.574C61.1996 22.5605 61.181 22.5411 61.1571 22.5163C61.1092 22.4668 61.0399 22.396 60.9515 22.3079C60.7749 22.1318 60.5216 21.8863 60.2117 21.6048C59.5952 21.0451 58.7391 20.3292 57.8059 19.7369C56.8921 19.157 55.8132 18.636 54.7682 18.5785C54.2294 18.5489 53.6789 18.6415 53.1728 18.9315C52.6657 19.222 52.2591 19.6786 51.9565 20.2838L53.2981 20.9546C53.4936 20.5638 53.7124 20.3511 53.9184 20.233C54.1254 20.1144 54.3757 20.0592 54.6858 20.0763C55.3387 20.1122 56.1502 20.4628 57.0022 21.0034C57.8348 21.5318 58.6199 22.1856 59.2033 22.7153C59.4933 22.9786 59.7295 23.2077 59.8925 23.3702C59.9739 23.4514 60.0369 23.5157 60.0789 23.5591C60.0999 23.5808 60.1156 23.5973 60.1258 23.608C60.1309 23.6133 60.1346 23.6172 60.1368 23.6196C60.138 23.6208 60.1388 23.6217 60.1392 23.6221C60.1394 23.6223 60.1395 23.6225 60.1395 23.6225C60.1395 23.6225 60.1395 23.6224 60.1395 23.6225C60.1394 23.6224 60.1393 23.6223 60.6866 23.1095ZM51.9565 20.2838C51.3626 21.4716 51.2709 23.1297 51.4033 24.848C51.5381 26.5975 51.9178 28.5413 52.3805 30.3888C53.3025 34.07 54.586 37.4891 55.0345 38.3862L56.3761 37.7154C55.9946 36.9522 54.7431 33.6478 53.8355 30.0244C53.3835 28.2195 53.0247 26.3657 52.8989 24.7327C52.7706 23.0685 52.8959 21.759 53.2981 20.9546L51.9565 20.2838ZM56.2356 38.5812L61.2169 33.6008L60.1563 32.54L55.175 37.5204L56.2356 38.5812ZM60.1562 33.6007L65.1359 38.5811L66.1966 37.5205L61.217 32.5401L60.1562 33.6007ZM65.6663 38.0508C66.3789 38.2844 66.379 38.2842 66.3791 38.284C66.3791 38.2839 66.3792 38.2836 66.3793 38.2833C66.3795 38.2828 66.3797 38.282 66.3801 38.2809C66.3808 38.2788 66.3817 38.2758 66.383 38.2719C66.3856 38.264 66.3893 38.2525 66.3942 38.2374C66.404 38.2071 66.4184 38.1627 66.4368 38.1048C66.4738 37.9892 66.5274 37.82 66.5943 37.6044C66.7281 37.1732 66.9153 36.5561 67.13 35.8097C67.5588 34.3185 68.0988 32.3047 68.5396 30.2248C68.9787 28.153 69.3272 25.9799 69.3582 24.1819C69.3736 23.2849 69.3112 22.4413 69.1208 21.7351C68.9329 21.0385 68.5907 20.3691 67.9626 19.9811L67.1742 21.2572C67.3385 21.3587 67.531 21.6012 67.6725 22.1257C67.8113 22.6404 67.8727 23.327 67.8584 24.156C67.8299 25.81 67.5048 27.8725 67.0722 29.9138C66.6413 31.947 66.1114 33.924 65.6884 35.3952C65.4771 36.1301 65.2929 36.7371 65.1617 37.1598C65.0961 37.3711 65.0438 37.5363 65.008 37.6482C64.9901 37.7042 64.9764 37.7468 64.9672 37.7753C64.9626 37.7895 64.9591 37.8002 64.9568 37.8072C64.9557 37.8107 64.9548 37.8133 64.9543 37.815C64.954 37.8158 64.9538 37.8164 64.9537 37.8168C64.9536 37.817 64.9536 37.8171 64.9536 37.8172C64.9536 37.8172 64.9536 37.8172 65.6663 38.0508ZM67.9626 19.9811C67.2256 19.5258 66.3037 19.5975 65.5205 19.7885C64.7037 19.9877 63.8419 20.3656 63.0764 20.7616C62.3046 21.1608 61.5985 21.5953 61.0875 21.9282C60.8313 22.0952 60.6223 22.2377 60.4766 22.3391C60.4038 22.3898 60.3466 22.4303 60.3072 22.4584C60.2875 22.4725 60.2722 22.4836 60.2615 22.4912C60.2562 22.4951 60.2521 22.4981 60.2491 22.5002C60.2477 22.5013 60.2465 22.5022 60.2456 22.5028C60.2452 22.5031 60.2448 22.5034 60.2445 22.5036C60.2444 22.5037 60.2442 22.5038 60.2442 22.5039C60.244 22.504 60.2439 22.504 60.6866 23.1095C61.1293 23.7149 61.1292 23.7149 61.1292 23.715C61.1292 23.715 61.1291 23.715 61.1291 23.715C61.1291 23.715 61.1292 23.7149 61.1294 23.7148C61.1298 23.7145 61.1304 23.7141 61.1313 23.7134C61.1332 23.712 61.1363 23.7098 61.1405 23.7068C61.1489 23.7007 61.1618 23.6913 61.1792 23.6789C61.2139 23.6541 61.266 23.6173 61.3334 23.5703C61.4684 23.4764 61.6646 23.3425 61.9063 23.1851C62.3913 22.8691 63.0524 22.4628 63.7655 22.0939C64.4849 21.7218 65.2258 21.4044 65.876 21.2458C66.5597 21.079 66.9691 21.1305 67.1742 21.2572L67.9626 19.9811Z" fill="#0285E4"/>
</svg>
