<svg width="78" height="85" viewBox="0 0 78 85" fill="none" xmlns="http://www.w3.org/2000/svg">
<path d="M77 25.826C76.9073 25.4703 76.2845 25.0213 76 24.8304L40 0.937579C39.8085 0.820946 39.2181 0.937579 39 0.937579C38.7819 0.937579 38.1915 0.820946 38 0.937579L2 24.8304C1.85696 24.9215 1.10071 24.6851 1 24.8304C0.899281 24.976 1.04293 25.6485 1 25.826C0.957075 26.0034 0.978557 25.6437 1 25.826C1.02145 26.0083 0.917468 26.6625 1 26.8215L4 31.7992C4.16706 32.1189 3.67993 31.7026 4 31.7992C4.32008 31.8956 4.71148 31.9816 5 31.7992L7 30.8037V83.5671C7 83.9367 6.76592 84.3012 7 84.5626C7.2341 84.8241 7.66894 84.5626 8 84.5626H70C70.331 84.5626 70.766 84.8241 71 84.5626C71.2342 84.3012 71 83.9367 71 83.5671V30.8037L73 31.7992C73.2887 31.9805 73.6802 31.8956 74 31.7992C74.3198 31.7027 73.8322 32.1181 74 31.7992L77 26.8215C77.1591 26.4984 77.0788 26.184 77 25.826ZM38 81.576H20V62.6608H25V69.6295C25.0006 69.8672 24.8958 69.4224 25 69.6295C25.1041 69.8367 25.8186 70.5009 26 70.6251C26.1814 70.7494 25.7873 70.6152 26 70.6251C26.2126 70.635 26.81 70.732 27 70.6251L29 69.6295L31 70.6251C31.1744 70.7232 31.8048 70.6223 32 70.6251C32.2335 70.6249 31.801 70.7617 32 70.6251C32.1799 70.4995 32.8974 69.8368 33 69.6295C33.1027 69.4223 33.0004 69.8665 33 69.6295V62.6608H38V81.576ZM28 66.6429V62.6608H30V66.6429C29.8265 66.5422 29.1956 66.6429 29 66.6429C28.8044 66.6429 28.1735 66.5422 28 66.6429ZM38 59.6742H25V45.7367H28V49.7188C28.0006 49.9565 27.8958 50.5073 28 50.7144C28.1041 50.9215 27.8186 50.5902 28 50.7144C28.1814 50.8387 28.7873 50.7045 29 50.7144C29.2126 50.7243 29.81 50.8213 30 50.7144L32 49.7188L33 50.7144C33.1744 50.8125 33.8048 50.7116 34 50.7144C34.2336 50.7142 34.801 50.851 35 50.7144C35.1799 50.5888 34.8974 50.9216 35 50.7144C35.1027 50.5071 35.0004 49.9558 35 49.7188V45.7367H38V59.6742ZM30 47.7278V45.7367H33V47.7278L32 46.7322C31.8265 46.6315 32.1956 46.7322 32 46.7322C31.8044 46.7322 31.1735 46.6315 31 46.7322L30 47.7278ZM58 81.576H40V62.6608H45V69.6295C45.0006 69.8672 44.8958 69.4224 45 69.6295C45.1041 69.8367 45.8186 70.5009 46 70.6251C46.1814 70.7494 45.7874 70.6152 46 70.6251C46.2127 70.635 46.81 70.732 47 70.6251L49 69.6295L51 70.6251C51.1744 70.7232 50.8048 70.6223 51 70.6251C51.2336 70.6249 51.801 70.7617 52 70.6251C52.1799 70.4995 52.8974 69.8368 53 69.6295C53.1027 69.4223 53.0004 69.8665 53 69.6295V62.6608H58V81.576ZM43 50.7144C43.1827 50.8394 43.7859 50.7046 44 50.7144C44.2141 50.7241 44.8088 50.8223 45 50.7144L46 49.7188L48 50.7144C48.1744 50.8125 48.8048 50.7116 49 50.7144C49.2336 50.7142 49.801 50.851 50 50.7144C50.1799 50.5888 49.8974 50.9216 50 50.7144C50.1027 50.5071 50.0004 49.9558 50 49.7188V45.7367H53V59.6742H40V45.7367H43V49.7188C42.9996 49.9558 42.8973 50.5071 43 50.7144C42.8201 50.5888 43.1026 50.9216 43 50.7144ZM45 47.7278V45.7367H48V47.7278L47 46.7322C46.8265 46.6315 46.1956 46.7322 46 46.7322C45.8044 46.7322 46.1735 46.6315 46 46.7322L45 47.7278ZM50 62.6608V66.6429C49.8265 66.5422 49.1956 66.6429 49 66.6429C48.8044 66.6429 48.1735 66.5422 48 66.6429V62.6608H50ZM64 81.576H60V60.6697C60 60.3001 60.2342 59.9355 60 59.6742C59.766 59.4129 59.331 59.6742 59 59.6742H55V43.7456C55 43.376 55.2342 43.0114 55 42.7501C54.766 42.4887 54.331 42.7501 54 42.7501H24C23.669 42.7501 23.234 42.4887 23 42.7501C22.766 43.0114 23 43.376 23 43.7456V59.6742H19C18.669 59.6742 18.234 59.4129 18 59.6742C17.766 59.9355 18 60.3001 18 60.6697V81.576H14V34.7858H64V81.576ZM69 81.576H66V32.7947C66 32.4251 66.2342 32.0605 66 31.7992C65.766 31.5379 65.331 31.7992 65 31.7992H13C12.669 31.7992 12.234 31.5379 12 31.7992C11.766 32.0605 12 32.4251 12 32.7947V81.576H9V29.8081L39 9.8974L69 29.8081V81.576ZM73 28.8126L40 7.90633C39.8091 7.78756 39.2184 6.91079 39 6.91079C38.7816 6.91079 38.1909 7.78756 38 7.90633L5 28.8126L4 26.8215L39 3.92419L74 26.8215L73 28.8126Z" fill="white"/>
</svg>
