<svg width="50" height="81" viewBox="0 0 50 81" fill="none" xmlns="http://www.w3.org/2000/svg">
<path fill-rule="evenodd" clip-rule="evenodd" d="M42.706 38.4422L39.9869 35.7323L48.4993 5.61502V78.5034H42.9265V38.9735V38.6621L42.706 38.4422ZM48.5276 0L38.4236 35.7485L38.3037 36.1726L38.6159 36.4837L41.4265 39.2849V79.2534V80.0034H42.1765H49.2493H49.9993V79.2534V0.20399L48.5276 0ZM3.72106 21.1082C1.46572 16.9276 1.75834e-05 10.774 0 2.72206H1.5C1.50002 10.6121 2.93921 16.4997 5.04121 20.396C7.07923 24.1738 9.67163 25.9792 12.1248 26.1297L12.1248 2.72206H13.6248L13.6248 26.0161C15.7638 25.5605 17.9371 23.8336 19.6987 20.5854C21.7989 16.7129 23.2392 10.7848 23.2392 2.72205L24.7392 2.72206C24.7392 10.9405 23.2745 17.1384 21.0173 21.3005C19.0564 24.9163 16.4401 27.0774 13.6248 27.5442L13.6248 79.254H12.1248L12.1248 27.632C8.92926 27.4802 5.91594 25.1768 3.72106 21.1082Z" fill="#0285E4"/>
</svg>
